<svg width="66" height="66" viewBox="0 0 66 66" fill="none" xmlns="http://www.w3.org/2000/svg">
<path d="M55.6671 13.0827C61.8895 19.318 62.1032 29.2517 56.3161 35.7307L32.9997 59.0837L9.68379 35.7307C3.89688 29.2517 4.1132 19.3023 10.3327 13.0827C16.5593 6.85616 26.5243 6.6464 33.0027 12.4535C39.4625 6.655 49.445 6.8475 55.6671 13.0827ZM14.2218 16.9718C10.125 21.0686 9.91935 27.6301 13.6948 31.9638L32.9997 51.2993L52.3052 31.9638C56.0821 27.6284 55.8772 21.0794 51.7742 16.9678C47.6842 12.8694 41.1009 12.6722 36.7793 16.4553L25.2218 28.014L21.3327 24.1248L29.1005 16.3515L28.8755 16.1618C24.545 12.6829 18.2138 12.9798 14.2218 16.9718Z" fill="black"/>
</svg>
