<svg width="66" height="66" viewBox="0 0 66 66" fill="none" xmlns="http://www.w3.org/2000/svg">
<path d="M59.5815 33.7618C59.7653 33.1595 59.9222 32.5493 60.0518 31.933C60.06 31.8863 60.0628 31.8423 60.0738 31.7955C60.1288 31.526 60.1535 31.2483 60.1975 30.976C60.2663 30.5443 60.3488 30.1153 60.39 29.6808C60.7173 26.4395 60.3188 23.166 59.2233 20.0979C58.1278 17.0299 56.363 14.2442 54.0568 11.9433C52.0157 9.89784 49.5907 8.27571 46.921 7.16999C44.2514 6.06428 41.3896 5.49676 38.5 5.50001V27.5H17.9218L15.5623 22H5.5V27.5H11.9378L16.9648 39.2315C15.2024 39.9577 13.695 41.1903 12.6332 42.7734C11.5715 44.3565 11.0031 46.2189 11 48.125C11 53.4325 15.3175 57.75 20.625 57.75C25.4623 57.75 29.436 54.1503 30.1098 49.5H35.8903C36.564 54.1503 40.5378 57.75 45.375 57.75C50.6825 57.75 55 53.4325 55 48.125C55 46.3925 54.5023 44.7893 53.6993 43.3813C53.8148 43.2685 53.944 43.1695 54.0595 43.054C55.0495 42.0613 55.9515 40.9668 56.7463 39.798C57.5383 38.6155 58.2203 37.3615 58.7703 36.0608C58.8143 35.959 58.8418 35.8518 58.883 35.75H58.8858L58.927 35.6345C59.169 35.0295 59.389 34.4218 59.5733 33.7975L59.5815 33.7618ZM20.625 52.25C18.3508 52.25 16.5 50.3993 16.5 48.125C16.5 45.8508 18.3508 44 20.625 44C22.8993 44 24.75 45.8508 24.75 48.125C24.75 50.3993 22.8993 52.25 20.625 52.25ZM45.375 52.25C43.1008 52.25 41.25 50.3993 41.25 48.125C41.25 45.8508 43.1008 44 45.375 44C47.6493 44 49.5 45.8508 49.5 48.125C49.5 50.3993 47.6493 52.25 45.375 52.25Z" fill="#021B2D"/>
</svg>
