<svg width="50" height="50" viewBox="0 0 50 50" fill="none" xmlns="http://www.w3.org/2000/svg">
<path d="M30.8752 8.875C30.4614 9.61602 30.0927 10.3813 29.771 11.1667C26.6101 10.6668 23.3903 10.6668 20.2294 11.1667C19.9077 10.3813 19.539 9.61602 19.1252 8.875C16.1477 9.38375 13.2531 10.2949 10.521 11.5833C5.63549 18.6339 3.41985 27.1937 4.27103 35.7292C7.45486 38.1226 11.0282 39.9481 14.8335 41.125C15.7 39.9804 16.4733 38.7682 17.146 37.5C15.9045 37.0423 14.7112 36.4631 13.5835 35.7708C13.8928 35.565 14.1854 35.3352 14.4585 35.0833C17.747 36.6673 21.3501 37.4899 25.0002 37.4899C28.6503 37.4899 32.2534 36.6673 35.5419 35.0833C35.8335 35.3333 36.1252 35.5625 36.4169 35.7708C35.283 36.4576 34.0909 37.0432 32.8544 37.5208C33.4992 38.8178 34.2518 40.0583 35.1044 41.2292C38.9049 40.0563 42.4721 38.2304 45.646 35.8333C46.5176 27.2963 44.3002 18.7296 39.396 11.6875C36.6946 10.3724 33.8287 9.4264 30.8752 8.875ZM18.0835 30.8542C17.041 30.7793 16.068 30.3035 15.3688 29.5266C14.6696 28.7497 14.2985 27.7321 14.3335 26.6875C14.2932 25.6415 14.6625 24.621 15.3627 23.8429C16.063 23.0649 17.0391 22.5906 18.0835 22.5208C19.128 22.5906 20.1041 23.0649 20.8043 23.8429C21.5046 24.621 21.8738 25.6415 21.8335 26.6875C21.8738 27.7335 21.5046 28.754 20.8043 29.5321C20.1041 30.3101 19.128 30.7844 18.0835 30.8542ZM31.9169 30.8542C30.8743 30.7793 29.9013 30.3035 29.2021 29.5266C28.5029 28.7497 28.1319 27.7321 28.1669 26.6875C28.1266 25.6415 28.4958 24.621 29.1961 23.8429C29.8963 23.0649 30.8724 22.5906 31.9169 22.5208C32.9633 22.5854 33.9425 23.0581 34.6438 23.8374C35.3452 24.6167 35.7125 25.6401 35.6669 26.6875C35.7125 27.7349 35.3452 28.7584 34.6438 29.5376C33.9425 30.3169 32.9633 30.7896 31.9169 30.8542Z" fill="black"/>
</svg>
