<svg width="50" height="50" viewBox="0 0 50 50" fill="none" xmlns="http://www.w3.org/2000/svg">
<path fill-rule="evenodd" clip-rule="evenodd" d="M25.0541 4.16669C13.577 4.16669 4.2749 13.4688 4.2749 24.9459C4.2749 34.125 10.227 41.9146 18.4853 44.6646C19.5249 44.8521 19.8999 44.2125 19.8999 43.6625C19.8999 43.1688 19.8832 41.8604 19.877 40.1292C14.0957 41.3834 12.8749 37.3417 12.8749 37.3417C11.9332 34.9417 10.5687 34.3021 10.5687 34.3021C8.68324 33.0125 10.7124 33.0417 10.7124 33.0417C12.7999 33.1875 13.8937 35.1834 13.8937 35.1834C15.7478 38.3584 18.7603 37.4417 19.9395 36.9104C20.1291 35.5667 20.6707 34.65 21.2624 34.1313C16.6499 33.6084 11.7999 31.825 11.7999 23.8604C11.7999 21.5959 12.6103 19.7375 13.9332 18.2875C13.7228 17.7604 13.0041 15.6459 14.1395 12.7875C14.1395 12.7875 15.8832 12.2271 19.852 14.9146C21.547 14.4535 23.2954 14.2181 25.052 14.2146C26.8086 14.2175 28.5571 14.4528 30.252 14.9146C34.2228 12.225 35.9645 12.7875 35.9645 12.7875C37.0999 15.6459 36.3874 17.7604 36.1707 18.2875C37.5041 19.7375 38.3041 21.5938 38.3041 23.8604C38.3041 31.8459 33.4499 33.6 28.8207 34.1146C29.5603 34.7563 30.227 36.0229 30.227 37.9604C30.227 40.7396 30.202 42.9813 30.202 43.6625C30.202 44.2188 30.5728 44.8646 31.6332 44.6604C39.8874 41.9063 45.8332 34.1229 45.8332 24.9459C45.8332 13.4688 36.5312 4.16669 25.0541 4.16669Z" fill="black"/>
</svg>
