<svg width="50" height="50" viewBox="0 0 50 50" fill="none" xmlns="http://www.w3.org/2000/svg">
<path d="M24.9981 15.3688C22.4432 15.3688 19.9929 16.3837 18.1863 18.1903C16.3797 19.9969 15.3647 22.4472 15.3647 25.0021C15.3647 27.557 16.3797 30.0073 18.1863 31.8139C19.9929 33.6205 22.4432 34.6355 24.9981 34.6355C27.553 34.6355 30.0033 33.6205 31.8099 31.8139C33.6165 30.0073 34.6314 27.557 34.6314 25.0021C34.6314 22.4472 33.6165 19.9969 31.8099 18.1903C30.0033 16.3837 27.553 15.3688 24.9981 15.3688ZM24.9981 31.2584C23.3383 31.2584 21.7464 30.599 20.5728 29.4253C19.3991 28.2517 18.7397 26.6598 18.7397 25C18.7397 23.3402 19.3991 21.7484 20.5728 20.5747C21.7464 19.4011 23.3383 18.7417 24.9981 18.7417C26.6579 18.7417 28.2497 19.4011 29.4234 20.5747C30.5971 21.7484 31.2564 23.3402 31.2564 25C31.2564 26.6598 30.5971 28.2517 29.4234 29.4253C28.2497 30.599 26.6579 31.2584 24.9981 31.2584Z" fill="black"/>
<path d="M35.0124 17.2604C36.2528 17.2604 37.2583 16.2549 37.2583 15.0146C37.2583 13.7742 36.2528 12.7687 35.0124 12.7687C33.7721 12.7687 32.7666 13.7742 32.7666 15.0146C32.7666 16.2549 33.7721 17.2604 35.0124 17.2604Z" fill="black"/>
<path d="M42.7773 12.7313C42.295 11.4858 41.558 10.3548 40.6134 9.41056C39.6689 8.46634 38.5376 7.72975 37.2919 7.24794C35.8343 6.70076 34.2944 6.4049 32.7377 6.37294C30.7315 6.28544 30.0961 6.26044 25.0086 6.26044C19.9211 6.26044 19.269 6.26044 17.2794 6.37294C15.724 6.40326 14.1851 6.69919 12.7294 7.24794C11.4834 7.72919 10.3518 8.46558 9.40718 9.40987C8.46253 10.3542 7.7257 11.4855 7.24398 12.7313C6.6967 14.1888 6.40151 15.7288 6.37106 17.2854C6.28148 19.2896 6.25439 19.925 6.25439 25.0146C6.25439 30.1021 6.25439 30.75 6.37106 32.7438C6.40231 34.3021 6.69606 35.8396 7.24398 37.3C7.72706 38.5454 8.4646 39.6762 9.40947 40.6204C10.3543 41.5646 11.4858 42.3012 12.7315 42.7834C14.1845 43.3525 15.7239 43.6696 17.2836 43.7209C19.2898 43.8084 19.9252 43.8354 25.0127 43.8354C30.1002 43.8354 30.7523 43.8354 32.7419 43.7209C34.2984 43.6892 35.8382 43.3941 37.2961 42.8479C38.5414 42.365 39.6724 41.6278 40.6169 40.6833C41.5613 39.7388 42.2986 38.6079 42.7815 37.3625C43.3294 35.9042 43.6232 34.3667 43.6544 32.8084C43.744 30.8042 43.7711 30.1688 43.7711 25.0792C43.7711 19.9896 43.7711 19.3438 43.6544 17.35C43.6302 15.7714 43.3334 14.2089 42.7773 12.7313ZM40.2398 32.5896C40.2264 33.7902 40.0072 34.9797 39.5919 36.1063C39.279 36.9164 38.8001 37.6521 38.1858 38.266C37.5715 38.8799 36.8356 39.3585 36.0252 39.6709C34.9111 40.0843 33.7343 40.3034 32.5461 40.3188C30.5669 40.4104 30.0086 40.4334 24.9336 40.4334C19.8544 40.4334 19.3357 40.4334 17.319 40.3188C16.1313 40.3042 14.9551 40.0851 13.8419 39.6709C13.0287 39.3604 12.2898 38.8827 11.6729 38.2687C11.056 37.6547 10.5749 36.918 10.2606 36.1063C9.85116 34.9918 9.63213 33.8164 9.61273 32.6292C9.52315 30.65 9.50231 30.0917 9.50231 25.0167C9.50231 19.9396 9.50231 19.4209 9.61273 17.4021C9.6262 16.2022 9.84534 15.0134 10.2606 13.8875C10.8961 12.2438 12.1981 10.95 13.8419 10.3209C14.9556 9.90865 16.1315 9.68953 17.319 9.67294C19.3002 9.58335 19.8565 9.55835 24.9336 9.55835C30.0107 9.55835 30.5315 9.55835 32.5461 9.67294C33.7344 9.68723 34.9114 9.90642 36.0252 10.3209C36.8355 10.6339 37.5714 11.1129 38.1856 11.7272C38.7998 12.3414 39.2788 13.0773 39.5919 13.8875C40.0014 15.002 40.2204 16.1774 40.2398 17.3646C40.3294 19.3459 40.3523 19.9021 40.3523 24.9792C40.3523 30.0542 40.3523 30.6 40.2627 32.5917H40.2398V32.5896Z" fill="black"/>
</svg>
