<svg width="66" height="66" viewBox="0 0 66 66" fill="none" xmlns="http://www.w3.org/2000/svg">
<path d="M55 16.5H46.75V11C46.75 7.96675 44.2832 5.5 41.25 5.5H24.75C21.7167 5.5 19.25 7.96675 19.25 11V16.5H11C7.96675 16.5 5.5 18.9668 5.5 22V33H19.25V27.5H24.75V33H41.25V27.5H46.75V33H60.5V22C60.5 18.9668 58.0332 16.5 55 16.5ZM24.75 11H41.25V16.5H24.75V11ZM46.75 41.25H41.25V35.75H24.75V41.25H19.25V35.75H5.5V52.25C5.5 55.2832 7.96675 57.75 11 57.75H55C58.0332 57.75 60.5 55.2832 60.5 52.25V35.75H46.75V41.25Z" fill="#021B2D"/>
</svg>
