<svg width="143" height="53" viewBox="0 0 143 53" fill="none" xmlns="http://www.w3.org/2000/svg">
<path d="M35.6485 52.5215V47.8809H27.6195V44.9425H34.8256V40.5762H27.6195V37.8577H35.5068V33.2171H22.3711V52.5215H35.6485ZM60.6108 52.5215V41.9221L67.2778 52.5215H72.2994V33.2171H67.3629V43.8989L60.6389 33.2171H55.6743V52.5215H60.6108ZM108.045 0.332031L89.1005 52.5215H103.597L106.204 44.578H124.306L126.913 52.5215H142.1L123.308 0.332031H108.045ZM120.624 33.0711H109.886L115.255 16.5902L120.624 33.0711Z" fill="#1B1B1B"/>
<path d="M0 0.384629V19.689H5.24853V11.2863L11.0361 19.689H17.4762L10.2701 9.66617L17.3911 0.384629H11.2631L5.24853 8.5678V0.384629H0ZM30.8328 10.0232C30.8328 12.9065 31.8255 15.2955 33.8116 17.19C35.8259 19.0849 38.3793 20.0461 41.4717 20.0461C44.6207 20.0461 47.2026 19.0849 49.2169 17.19C51.2311 15.2955 52.2242 12.9065 52.2242 10.0232C52.2242 7.1396 51.2311 4.75089 49.2169 2.85605C47.2026 0.961211 44.6207 0 41.4717 0C38.3793 0 35.8259 0.961211 33.8116 2.85605C31.8255 4.75089 30.8328 7.1396 30.8328 10.0232ZM46.7201 10.0504C46.7201 11.6158 46.238 12.8513 45.2734 13.8125C44.3088 14.7738 43.032 15.268 41.4717 15.268C39.9114 15.268 38.663 14.7738 37.7266 13.8125C36.7905 12.8513 36.3084 11.5882 36.3084 10.0504C36.3084 8.54022 36.7905 7.27711 37.7551 6.28833C38.7197 5.2999 39.968 4.80569 41.4998 4.80569C43.0605 4.80569 44.3088 5.2999 45.2734 6.28833C46.238 7.27711 46.7201 8.54022 46.7201 10.0504ZM77.9969 19.689V13.1536L84.5788 0.384629H79.0747L75.4151 7.74376L72.0674 0.384629H66.0812L72.7482 13.4007V19.689H77.9969Z" fill="#1B1B1B"/>
</svg>
