<svg width="66" height="66" viewBox="0 0 66 66" fill="none" xmlns="http://www.w3.org/2000/svg">
<path d="M57.75 27.5H52.25V11H55V5.5H11V11H13.75V27.5H8.25C7.52065 27.5 6.82118 27.7897 6.30546 28.3055C5.78973 28.8212 5.5 29.5207 5.5 30.25V55H60.5V30.25C60.5 29.5207 60.2103 28.8212 59.6945 28.3055C59.1788 27.7897 58.4793 27.5 57.75 27.5ZM38.5 49.5V38.5H27.5V49.5H19.25V11H46.75V49.5H38.5Z" fill="#021B2D"/>
<path d="M24.75 16.5H30.25V22H24.75V16.5ZM35.75 16.5H41.25V22H35.75V16.5ZM24.75 27.5H30.25V33H24.75V27.5ZM35.75 27.5H41.25V33H35.75V27.5Z" fill="#021B2D"/>
</svg>
